<svg xmlns="http://www.w3.org/2000/svg" xmlns:xlink="http://www.w3.org/1999/xlink" width="1250" height="25.954" viewBox="0 0 1250 25.954">
  <defs>
    <style>
      .cls-1 {
        fill: #2e84ff;
      }

      .cls-2 {
        clip-path: url(#clip-path);
      }
    </style>
    <clipPath id="clip-path">
      <path id="Path_350" data-name="Path 350" class="cls-1" d="M0,18.283H1250V-7.671H0Z" transform="translate(0 7.671)"/>
    </clipPath>
  </defs>
  <g id="Group_643" data-name="Group 643" transform="translate(0 7.671)">
    <g id="Group_621" data-name="Group 621" class="cls-2" transform="translate(0 -7.671)">
      <g id="Group_620" data-name="Group 620" transform="translate(0 0.002)">
        <path id="Path_349" data-name="Path 349" class="cls-1" d="M870.769,14.817l-8.07.426c-2.687.152-5.366.284-8.034.342l-18.524.6c-6.175.21-12.353.193-18.531.3l-9.276.129-9.284-.017q-9.289-.041-18.6-.078c-24.827-.308-49.789-1.076-75.07-2.04-50.545-2-102.331-4.953-156.829-6.239-9.535-.2-19.245-.467-29.075-.453l-14.841-.061-15,.152c-20.1.291-40.544.988-61.01,1.732S387.676,11.146,367.5,11.64s-40.044.653-59.2.372c22.7.372,45.594.213,68.515-.4,22.925-.575,45.906-1.468,68.909-2.213s46.017-1.367,69.019-1.262c23-.068,46.02.579,68.98,1.313,45.924,1.61,91.643,4.236,136.861,6,45.207,1.854,89.957,2.6,133.745,1.073l-13.9,1.069q-3.646.254-7.442.521-3.806.167-7.768.345-7.947.289-16.519.606c-5.721.115-11.658.135-17.815.159-59.25-.308-117.424-3.732-174.97-6.137.011-.3.039-.9.05-1.2Q585.3,10.8,555.133,10.152c-10.057-.112-20.089-.342-30.083-.359-10,.017-19.965-.078-29.909.078-39.792.508-79.339,2.348-119.028,3.272-19.841.484-39.739.66-59.654.426-19.916-.217-39.849-.778-59.842-1.485-39.984-1.414-80.223-3.431-121.1-4.378,5.806.359,2.349.487,1.139.643-.4-.014-.788-.024-1.16-.037.373.014.756.024,1.16.037-1.1.135-.433.291,9.734.633-10.167-.342-10.831-.5-9.734-.633,40.189,1.245,79.783,3.309,119.152,4.706,19.685.7,39.316,1.235,58.93,1.431s39.221.03,58.756-.484c39.082-.954,78-2.859,117.133-3.421,39.111-.5,78.558.48,118.716,2.233-31.172-1.265-62.177-2.2-93.051-2.2-30.86-.135-61.67,1.029-92.526,2.118-30.849,1.117-61.762,2.253-92.764,2.267-30.991.068-61.915-.907-92.817-2.111-30.906-1.221-61.787-2.71-92.732-3.789S83.535,7.469,52.352,7.7C-10,8.068-72.972,10.835-136.973,13.549c-10.9.46-32.737,1.387-43.65,1.847-43.7.944-87.395,2.49-131.026,4.341,10.827-1.976-32.975-3.15,54.391-6.246l-.057-1.208c-87.405,2.186-120.359-.66-33.074-5.569C-241.306,4.028-184,1.6-123.971-.868S-1.053-5.74,59.226-6.177q32.886-.2,65.8.633c21.921.555,43.8,1.411,65.637,2.341C234.342-1.338,277.885.773,321.357,1.324c29.873.42,60.47-.359,91.508-1.377,31.034-.988,62.5-2.2,94.063-2.28C570.07-2.58,632.883,1.26,692.814,4.194c21.818,1.042,51.8,1.935,79.034,2.128,3.4.034,6.764.068,10.064.1,3.293-.01,6.526-.02,9.674-.027,6.292-.017,12.243-.03,17.687-.044,10.877-.189,19.72-.193,25.164-.156,15.622-.2,16.282.42,13.925,1.235-71.585,3.008-143.1-.765-213.84-3.867C591.128,1.555,547.642-.12,504.074-.039,460.506.13,417.084,2.2,373.775,3.04,416.137,2.35,459.161.347,502.761.127c43.6-.149,87.565,1.489,131.761,3.441C705.089,6.816,775.677,10.72,846.144,8.1c-2.544.721-5,1.468-.671,1.888,0,0,5.451-.22,12.265-.5,6.806-.44,14.972-.964,20.419-1.316,5.469-.1,10.064-.426,13.911-.545,3.843-.145,6.924-.213,9.33-.213,4.809,0,6.9.264,6.956.714.106.9-7.97,2.554-18.815,4.3-5.543.886-11.793,1.573-18.769,2.379" transform="translate(341.647 6.217)"/>
      </g>
    </g>
  </g>
</svg>
