<svg width="1249" height="26" viewBox="0 0 1249 26" fill="none" xmlns="http://www.w3.org/2000/svg">
<path d="M1211.44 21.0732L1203.38 21.5C1200.7 21.6523 1198.02 21.7845 1195.35 21.8426L1176.84 22.4437C1170.67 22.654 1164.5 22.637 1158.33 22.7442L1149.06 22.8734L1139.78 22.8564C1133.59 22.829 1127.4 22.803 1121.2 22.7783C1096.39 22.4697 1071.45 21.7004 1046.19 20.7346C995.683 18.7311 943.939 15.7729 889.484 14.4846C879.957 14.2842 870.255 14.0168 860.433 14.0308L845.604 13.9697L830.616 14.1219C810.532 14.4135 790.104 15.1117 769.654 15.857C749.205 16.6023 728.738 17.3957 708.578 17.8906C688.419 18.3855 668.567 18.5448 649.426 18.2633C672.108 18.6359 694.983 18.4766 717.886 17.8626C740.793 17.2865 763.755 16.392 786.74 15.6456C809.724 14.8993 832.72 14.2762 855.703 14.3814C878.685 14.3133 901.687 14.9614 924.628 15.6967C970.515 17.3096 1016.2 19.9402 1061.38 21.7074C1106.55 23.5647 1151.26 24.312 1195.02 22.7823L1181.13 23.8532C1178.7 24.0228 1176.22 24.1968 1173.69 24.3751C1171.16 24.4866 1168.57 24.6018 1165.93 24.7207C1160.64 24.9137 1155.13 25.1161 1149.42 25.3278C1143.71 25.443 1137.78 25.463 1131.62 25.4871C1072.42 25.1785 1014.29 21.7484 956.794 19.3392C956.805 19.0386 956.833 18.4376 956.844 18.137C936.417 17.4118 916.156 16.8327 896.061 16.4C886.012 16.2878 875.988 16.0574 866.002 16.0403C856.01 16.0574 846.053 15.9622 836.117 16.1185C796.357 16.6274 756.842 18.4706 717.185 19.3963C697.36 19.8811 677.477 20.0574 657.578 19.823C637.678 19.6056 617.761 19.0437 597.784 18.3354C557.832 16.9189 517.626 14.8983 476.781 13.9496C482.583 14.3093 479.129 14.4375 477.92 14.5938C477.52 14.5798 477.132 14.5697 476.76 14.5567C477.133 14.5707 477.516 14.5808 477.92 14.5938C476.82 14.729 477.487 14.8853 487.646 15.2279C477.487 14.8853 476.823 14.727 477.92 14.5938C518.076 15.841 557.639 17.9086 596.976 19.3081C616.645 20.0094 636.261 20.5453 655.859 20.7417C675.457 20.938 695.048 20.7717 714.568 20.2568C753.618 19.3011 792.505 17.3927 831.607 16.8297C870.686 16.3288 910.102 17.3106 950.228 19.0667C919.081 17.7995 888.1 16.8628 857.251 16.8628C826.416 16.7276 795.631 17.8936 764.799 18.9845C733.975 20.1035 703.087 21.2415 672.11 21.2556C641.144 21.3237 610.244 20.347 579.367 19.1408C548.486 17.9177 517.63 16.426 486.71 15.3451C455.789 14.2642 424.841 13.7122 393.683 13.9436C331.381 14.3123 268.46 17.0842 204.51 19.803C193.619 20.2638 171.799 21.1925 160.895 21.6533C117.23 22.5989 73.57 24.1477 29.974 26.002C40.7923 24.0225 -2.9746 22.8464 84.3214 19.7449L84.2644 18.5348C-3.07053 20.7246 -35.9981 17.8736 51.2169 12.9559C100.261 10.2651 157.521 7.83282 217.502 5.36044C277.482 2.88807 340.321 0.479808 400.552 0.0420333C422.458 -0.0915364 444.374 0.119838 466.299 0.676155C488.202 1.23214 510.064 2.08966 531.883 3.0213C575.527 4.88961 619.035 7.00435 662.472 7.55633C692.322 7.97707 722.894 7.19669 753.907 6.17689C784.916 5.18714 816.357 3.97299 847.895 3.89285C910.986 3.64541 973.749 7.49221 1033.63 10.4314C1055.43 11.4753 1085.39 12.3698 1112.6 12.5632C1116 12.5972 1119.36 12.6313 1122.66 12.6634C1125.95 12.6533 1129.18 12.6433 1132.32 12.6363C1138.61 12.6193 1144.56 12.6063 1150 12.5922C1160.87 12.4029 1169.7 12.3989 1175.14 12.436C1190.75 12.2356 1191.41 12.8567 1189.06 13.6732C1117.53 16.6865 1046.07 12.9068 975.386 9.7993C932.027 7.78774 888.576 6.10977 845.043 6.19091C801.51 6.36021 758.123 8.43388 714.848 9.27537C757.177 8.58415 800.166 6.5776 843.731 6.35721C887.296 6.20794 931.226 7.84885 975.386 9.80431C1045.9 13.0581 1116.43 16.969 1186.84 14.3443C1184.3 15.0666 1181.84 15.8149 1186.17 16.2357C1186.17 16.2357 1191.61 16.0153 1198.42 15.7348C1205.22 15.294 1213.38 14.7691 1218.83 14.4165C1224.29 14.3163 1228.88 13.9897 1232.73 13.8705C1236.57 13.7252 1239.64 13.6571 1242.05 13.6571C1246.85 13.6571 1248.94 13.9216 1249 14.3724C1249.1 15.274 1241.04 16.9309 1230.2 18.68C1224.66 19.5676 1218.42 20.2558 1211.45 21.0632" fill="#218280"/>
</svg>
