<svg width="1243" height="114" viewBox="0 0 1243 114" fill="none" xmlns="http://www.w3.org/2000/svg">
<g clip-path="url(#clip0_4_2)">
<path d="M1205.68 35.0756C1200.27 36.4688 1194.85 37.862 1189.49 39.2363C1164.66 45.6509 1139.8 51.9741 1114.73 58.1837C1089.65 64.3665 1064.31 70.3164 1038.55 76.0146C1012.77 81.655 986.53 86.8964 959.655 91.6651C932.78 96.4338 905.217 100.437 876.855 103.721C837.125 108.138 794.33 111.32 751.46 111.397C709.522 111.582 667.622 108.836 626.07 103.18C637.834 104.687 649.614 106.416 661.502 107.411L670.412 108.282L674.871 108.719C676.361 108.857 677.854 108.928 679.342 109.038C685.307 109.436 691.279 109.834 697.259 110.232C721.185 111.473 745.259 112.106 769.357 111.48C781.415 111.403 793.458 110.673 805.516 110.187C811.541 109.857 817.557 109.383 823.579 108.985L832.61 108.364C835.62 108.125 838.618 107.822 841.624 107.553L859.646 105.891L877.617 103.856L886.598 102.82L895.552 101.625C901.52 100.814 907.495 100.068 913.446 99.2073C925.331 97.3772 937.233 95.6994 949.04 93.6136C954.948 92.5946 960.868 91.6731 966.748 90.5764C972.629 89.4798 978.508 88.407 984.382 87.3273C1007.83 82.8505 1031.08 78.044 1054.13 72.9078C1100.2 62.7056 1145.31 51.3431 1189.32 40.1389C1171.73 45.4599 1150.66 51.6088 1125.86 57.8653C1066.14 72.7008 1006.8 86.1759 947.223 96.0716C947.176 95.8029 947.084 95.2755 947.04 95.0088C936.506 96.9563 925.941 98.4838 915.444 100.172C910.2 101.036 904.924 101.664 899.679 102.416C894.427 103.122 889.195 103.892 883.95 104.534L868.228 106.36L860.385 107.265L852.536 108.015C847.305 108.506 842.08 108.994 836.862 109.478C834.255 109.744 831.64 109.926 829.026 110.1L821.194 110.641C815.972 110.981 810.764 111.405 805.55 111.674C800.332 111.903 795.118 112.13 789.909 112.354L782.1 112.693C779.502 112.793 776.892 112.793 774.291 112.855C769.087 112.942 763.885 113.031 758.685 113.12L754.788 113.184L750.891 113.15L743.097 113.07L727.517 112.891L711.954 112.289C706.766 112.077 701.578 111.95 696.401 111.532C654.794 109.101 613.428 103.574 572.649 94.9988C531.142 86.0776 490.547 73.3712 451.378 57.0403C456.974 59.5222 453.536 58.334 452.29 58.0056C451.899 57.8444 451.524 57.6861 451.162 57.5379C451.524 57.6861 451.899 57.8444 452.29 58.0056C451.169 57.707 451.774 58.0862 461.683 62.2031C451.777 58.0862 451.172 57.706 452.29 58.0056C490.814 74.2603 530.782 86.8873 571.669 95.7213C611.846 104.197 652.604 109.66 693.601 112.065L701.254 112.57L708.917 112.863L724.247 113.424L728.08 113.565L731.917 113.602L739.587 113.666C744.704 113.709 749.823 113.752 754.944 113.793C760.061 113.699 765.183 113.606 770.309 113.513C775.433 113.399 780.563 113.402 785.69 113.115C790.813 112.893 795.942 112.669 801.078 112.443C803.645 112.315 806.215 112.255 808.782 112.072L816.483 111.544C857.585 108.839 898.831 103.969 940.421 97.225C875.871 107.716 811.055 114.161 746.242 113.993C713.856 113.979 681.493 112.222 649.297 108.729C617.061 105.16 585.088 99.5422 553.571 91.9109C521.914 84.2468 490.877 74.2308 460.723 61.9473C453.192 58.8027 445.582 55.8083 438.232 52.2029L427.115 46.9984C425.267 46.1236 423.397 45.2798 421.562 44.3782L416.091 41.6445C401.569 34.3123 387.305 26.8418 372.54 21.1666C357.827 15.4943 342.48 11.7347 327.164 12.2999C311.86 12.9836 296.73 17.591 282.416 24.6078C268.018 31.4961 254.248 40.3061 240.127 49.0483C233.054 53.4449 225.938 57.7707 218.42 61.9274C210.834 66.0391 202.958 69.5977 194.855 72.5754C187.422 75.3198 179.779 77.4616 172 78.9801C164.092 80.5445 156.032 81.2182 147.973 80.9883C135.81 80.433 123.362 77.1908 112.715 70.5712C110.07 68.9165 107.548 67.073 105.17 65.0551C102.817 63.0871 100.604 60.959 98.5472 58.6863C94.4944 54.2997 90.9821 49.8634 87.273 46.0221C83.8786 42.2667 79.7939 39.1929 75.2394 36.9664C70.723 34.8833 65.8018 33.8155 60.8246 33.8387C55.6196 33.8667 50.448 34.6684 45.4806 36.217C40.3129 37.7884 35.2947 39.8111 30.4843 42.2615C35.1017 39.2313 27.2488 41.952 28.1131 40.6772C28.8924 39.8938 29.7962 39.2439 30.788 38.7536C33.4453 37.2442 36.2044 35.9202 39.0456 34.791C41.3545 33.8538 43.7132 33.0433 46.1111 32.3629C49.2291 31.4559 52.4203 30.8199 55.6486 30.4622C59.698 29.9941 63.7938 30.1064 67.8112 30.7955C72.7304 31.66 77.4158 33.5326 81.5705 36.2947C81.7193 36.0698 82.0161 35.615 82.17 35.3861C77.6586 32.3425 72.5499 30.287 67.1817 29.3556C62.2441 28.5686 57.215 28.5351 52.2673 29.2561C43.8986 30.6155 35.7617 33.1323 28.0921 36.7335C21.3814 39.7538 15.9506 42.7511 11.6679 45.1225C7.39228 47.5178 4.27371 49.317 2.32623 50.2972C0.40073 51.2695 -0.362679 51.4237 0.154918 50.6953C1.84983 48.8674 3.72853 47.2174 5.76154 45.7714C10.5068 42.1278 15.4752 38.782 20.6379 35.7533C24.4753 33.4973 28.4327 31.4503 32.4927 29.6213C37.5852 27.3258 42.8919 25.5345 48.3364 24.2734C55.5072 22.5794 62.9515 22.3745 70.2053 23.6713C74.0369 24.4102 77.7515 25.6579 81.2497 27.3812C84.771 29.121 88.0564 31.2988 91.0271 33.8625C96.8735 38.8711 101.389 44.5961 105.989 49.5439C108.173 51.9788 110.545 54.2394 113.084 56.3049C115.585 58.3466 118.281 60.1401 121.133 61.6597C127.02 64.7766 133.404 66.8562 140.003 67.8067C143.422 68.2948 146.87 68.5634 150.324 68.6108C153.862 68.6241 157.397 68.4457 160.916 68.0764C175.154 66.5259 189.526 62.006 203.198 55.675C206.622 54.0907 209.992 52.3681 213.327 50.559L215.816 49.1767L218.329 47.7139C220.005 46.7287 221.689 45.7863 223.361 44.7643C230.062 40.7718 236.762 36.5464 243.565 32.3659C250.354 28.1684 257.277 23.9868 264.424 20.052C271.608 16.0019 279.035 12.3967 286.665 9.25677C294.439 6.04942 302.5 3.57853 310.74 1.87682C319.099 0.28767 327.621 -0.289382 336.12 0.158221C344.493 0.671479 352.79 2.05562 360.874 4.28804C368.726 6.47519 376.425 9.17419 383.921 12.3676C394.712 16.8576 404.996 22.0712 415.189 27.1842C420.285 29.7238 425.304 32.3509 430.411 34.7154L445.718 41.8396C450.778 44.3115 456.027 46.3674 461.222 48.5269L469.027 51.7521L472.924 53.3662C474.223 53.9176 475.528 54.439 476.859 54.8998L492.733 60.6885C495.388 61.6269 498.002 62.6787 500.69 63.5276L508.738 66.097C514.112 67.7888 519.458 69.5751 524.852 71.2061L541.148 75.723C543.867 76.4664 546.572 77.2605 549.301 77.9631L557.531 79.9175L573.99 83.8324L590.583 87.1691L598.876 88.8439L607.226 90.2371L623.931 93.0235L640.718 95.2904C702.359 103.367 767.806 104.157 832.745 98.9505C897.747 93.7071 962.232 82.89 1023.43 70.3025C1045.71 65.7448 1076.13 58.5061 1103.72 51.584C1117.52 48.1796 1130.6 44.7523 1141.63 41.9938C1152.65 39.1617 1161.63 36.9385 1167.19 35.6836C1183.09 31.8693 1183.87 32.2624 1181.62 33.5272C1109.26 52.6428 1036.83 70.6886 964.286 83.7528C942.023 87.6139 919.721 91.281 897.312 94.1331L888.912 95.2397L884.715 95.791L880.507 96.2617L863.679 98.1484C858.072 98.8311 852.442 99.2351 846.825 99.7695C841.201 100.244 835.589 100.846 829.958 101.215C818.698 101.918 807.451 102.856 796.173 103.193C790.54 103.408 784.906 103.69 779.27 103.852L762.359 104.104L753.905 104.212L745.455 104.112L728.551 103.9L711.664 103.218L703.224 102.871C700.41 102.73 697.607 102.491 694.797 102.303C697.543 102.495 700.293 102.73 703.045 102.881C705.801 103.003 708.559 103.123 711.319 103.242C716.842 103.477 722.371 103.714 727.907 103.951L744.571 104.193C747.354 104.233 750.138 104.272 752.923 104.307C755.71 104.354 758.496 104.254 761.289 104.237C766.868 104.156 772.458 104.076 778.058 103.998C783.653 103.907 789.257 103.584 794.87 103.382C806.097 103.046 817.33 102.188 828.601 101.447L832.83 101.165L837.054 100.785L845.508 100.021L853.975 99.258C856.799 99.0092 859.626 98.7505 862.443 98.4102C873.727 97.1254 885.051 95.9651 896.352 94.36C918.991 91.481 941.617 87.7234 964.282 83.7578C1036.68 70.8409 1108.25 53.219 1179.48 34.6318C1177.02 35.8558 1174.67 37.0808 1179.15 36.4449C1179.15 36.4449 1201.15 30.5736 1212.15 27.632C1256.51 17.0835 1245.98 21.8831 1224.38 29.1247C1218.84 30.8907 1212.6 32.8754 1205.69 35.0786" fill="#218280"/>
</g>
<defs>
<clipPath id="clip0_4_2">
<rect width="1243" height="114" fill="white"/>
</clipPath>
</defs>
</svg>
