<svg width="118" height="12" viewBox="0 0 118 12" fill="none" xmlns="http://www.w3.org/2000/svg">
<g clip-path="url(#clip0_3_2)">
<path d="M4.30352 7.13589L7.32141 7.10422C7.52221 7.31745 7.6516 7.54985 7.70006 7.78433C7.74852 8.01881 7.71483 8.24943 7.60146 8.45923C14.1683 8.62224 20.7263 8.73149 27.284 8.85911C35.4601 8.88674 43.5509 9.03122 51.5263 9.54761C43.4167 9.19738 35.3463 9.01086 27.2835 8.85721C20.738 8.83402 14.1392 8.88489 7.50197 8.88167C7.41555 9.40788 7.59426 9.87682 9.12193 10.1764C11.3057 10.815 18.1777 10.0744 22.2609 10.2495C33.5523 11.0061 45.5695 10.6493 56.8059 11.1854C64.9655 11.5357 72.9591 11.2237 80.9519 10.9123C91.9022 10.3469 104.203 11.0923 113.029 10.1081C120.851 9.13506 117.037 6.08216 108.702 5.07085L108.474 4.188C116.637 4.53767 112.044 2.37628 112.764 1.26424C108.708 1.34399 104.576 1.09357 100.464 0.518846L96.441 0.561065C72.8446 0.828325 50.7599 1.50808 27.6337 1.35599C42.5701 1.61684 56.507 1.67209 71.2968 1.2894C71.2234 1.43338 70.9505 1.61621 71.5173 1.73065C56.7115 3.00381 42.1693 1.39862 27.2506 2.23067L27.0252 1.35667C21.6874 1.31848 16.2837 1.23092 10.8142 1.09399C8.7938 1.13009 6.88588 1.47214 5.24281 2.09282C21.6732 3.4412 39.1742 3.08583 55.9689 3.30436C48.9293 3.38394 40.9375 3.69529 33.7801 3.3338C23.6054 3.00587 14.6086 3.32904 5.38324 2.77C4.8843 2.73278 4.37641 2.69122 3.87064 2.65027C3.29264 2.9098 2.7802 3.16928 2.32907 3.40087C0.603717 4.52409 -0.00725102 6.07855 4.30352 7.13589Z" fill="#218280"/>
</g>
<defs>
<clipPath id="clip0_3_2">
<rect width="118" height="12" fill="white"/>
</clipPath>
</defs>
</svg>
